<svg width="14" height="15" viewBox="0 0 14 15" fill="none" xmlns="http://www.w3.org/2000/svg">
<g id="Icon/heart">
<g id="Vector">
<path d="M7.05835 11.3208L7.00002 11.3792L6.93585 11.3208C4.16502 8.80667 2.33335 7.14417 2.33335 5.45833C2.33335 4.29167 3.20835 3.41667 4.37502 3.41667C5.27335 3.41667 6.14835 4 6.45752 4.79333H7.54252C7.85169 4 8.72669 3.41667 9.62502 3.41667C10.7917 3.41667 11.6667 4.29167 11.6667 5.45833C11.6667 7.14417 9.83502 8.80667 7.05835 11.3208ZM9.62502 2.25C8.61002 2.25 7.63585 2.7225 7.00002 3.46333C6.36419 2.7225 5.39002 2.25 4.37502 2.25C2.57835 2.25 1.16669 3.65583 1.16669 5.45833C1.16669 7.6575 3.15002 9.46 6.15419 12.1842L7.00002 12.9542L7.84585 12.1842C10.85 9.46 12.8334 7.6575 12.8334 5.45833C12.8334 3.65583 11.4217 2.25 9.62502 2.25Z" fill="black"/>
<path d="M7.05835 11.3208L7.00002 11.3792L6.93585 11.3208C4.16502 8.80667 2.33335 7.14417 2.33335 5.45833C2.33335 4.29167 3.20835 3.41667 4.37502 3.41667C5.27335 3.41667 6.14835 4 6.45752 4.79333H7.54252C7.85169 4 8.72669 3.41667 9.62502 3.41667C10.7917 3.41667 11.6667 4.29167 11.6667 5.45833C11.6667 7.14417 9.83502 8.80667 7.05835 11.3208ZM9.62502 2.25C8.61002 2.25 7.63585 2.7225 7.00002 3.46333C6.36419 2.7225 5.39002 2.25 4.37502 2.25C2.57835 2.25 1.16669 3.65583 1.16669 5.45833C1.16669 7.6575 3.15002 9.46 6.15419 12.1842L7.00002 12.9542L7.84585 12.1842C10.85 9.46 12.8334 7.6575 12.8334 5.45833C12.8334 3.65583 11.4217 2.25 9.62502 2.25Z" fill="black" fill-opacity="0.2"/>
<path d="M7.05835 11.3208L7.00002 11.3792L6.93585 11.3208C4.16502 8.80667 2.33335 7.14417 2.33335 5.45833C2.33335 4.29167 3.20835 3.41667 4.37502 3.41667C5.27335 3.41667 6.14835 4 6.45752 4.79333H7.54252C7.85169 4 8.72669 3.41667 9.62502 3.41667C10.7917 3.41667 11.6667 4.29167 11.6667 5.45833C11.6667 7.14417 9.83502 8.80667 7.05835 11.3208ZM9.62502 2.25C8.61002 2.25 7.63585 2.7225 7.00002 3.46333C6.36419 2.7225 5.39002 2.25 4.37502 2.25C2.57835 2.25 1.16669 3.65583 1.16669 5.45833C1.16669 7.6575 3.15002 9.46 6.15419 12.1842L7.00002 12.9542L7.84585 12.1842C10.85 9.46 12.8334 7.6575 12.8334 5.45833C12.8334 3.65583 11.4217 2.25 9.62502 2.25Z" fill="black" fill-opacity="0.2"/>
<path d="M7.05835 11.3208L7.00002 11.3792L6.93585 11.3208C4.16502 8.80667 2.33335 7.14417 2.33335 5.45833C2.33335 4.29167 3.20835 3.41667 4.37502 3.41667C5.27335 3.41667 6.14835 4 6.45752 4.79333H7.54252C7.85169 4 8.72669 3.41667 9.62502 3.41667C10.7917 3.41667 11.6667 4.29167 11.6667 5.45833C11.6667 7.14417 9.83502 8.80667 7.05835 11.3208ZM9.62502 2.25C8.61002 2.25 7.63585 2.7225 7.00002 3.46333C6.36419 2.7225 5.39002 2.25 4.37502 2.25C2.57835 2.25 1.16669 3.65583 1.16669 5.45833C1.16669 7.6575 3.15002 9.46 6.15419 12.1842L7.00002 12.9542L7.84585 12.1842C10.85 9.46 12.8334 7.6575 12.8334 5.45833C12.8334 3.65583 11.4217 2.25 9.62502 2.25Z" fill="black" fill-opacity="0.2"/>
<path d="M7.05835 11.3208L7.00002 11.3792L6.93585 11.3208C4.16502 8.80667 2.33335 7.14417 2.33335 5.45833C2.33335 4.29167 3.20835 3.41667 4.37502 3.41667C5.27335 3.41667 6.14835 4 6.45752 4.79333H7.54252C7.85169 4 8.72669 3.41667 9.62502 3.41667C10.7917 3.41667 11.6667 4.29167 11.6667 5.45833C11.6667 7.14417 9.83502 8.80667 7.05835 11.3208ZM9.62502 2.25C8.61002 2.25 7.63585 2.7225 7.00002 3.46333C6.36419 2.7225 5.39002 2.25 4.37502 2.25C2.57835 2.25 1.16669 3.65583 1.16669 5.45833C1.16669 7.6575 3.15002 9.46 6.15419 12.1842L7.00002 12.9542L7.84585 12.1842C10.85 9.46 12.8334 7.6575 12.8334 5.45833C12.8334 3.65583 11.4217 2.25 9.62502 2.25Z" fill="black" fill-opacity="0.2"/>
</g>
</g>
</svg>
